<svg width="20" height="20" viewBox="0 0 20 20" fill="none" xmlns="http://www.w3.org/2000/svg">
<g clip-path="url(#clip0_1870_8272)">
<path d="M18.7856 10.1676C18.7856 9.4302 18.7258 8.89205 18.5963 8.33398H10.1753V11.6625H15.1182C15.0186 12.4896 14.4805 13.7354 13.2846 14.5724L13.2678 14.6839L15.9303 16.7465L16.1148 16.7649C17.8089 15.2003 18.7856 12.8982 18.7856 10.1676Z" fill="#4285F4"/>
<path d="M10.1752 18.9393C12.5969 18.9393 14.6298 18.142 16.1148 16.7668L13.2845 14.5743C12.5271 15.1025 11.5106 15.4712 10.1752 15.4712C7.80344 15.4712 5.79039 13.9067 5.0728 11.7441L4.96761 11.7531L2.19905 13.8957L2.16284 13.9963C3.63774 16.9262 6.66731 18.9393 10.1752 18.9393Z" fill="#34A853"/>
<path d="M5.07269 11.7421C4.88334 11.184 4.77376 10.5861 4.77376 9.96822C4.77376 9.35032 4.88335 8.7524 5.06273 8.19433L5.05771 8.07548L2.25445 5.89844L2.16273 5.94206C1.55486 7.15789 1.20605 8.52321 1.20605 9.96822C1.20605 11.4132 1.55486 12.7785 2.16273 13.9943L5.07269 11.7421Z" fill="#FBBC05"/>
<path d="M10.1752 4.46802C11.8594 4.46802 12.9955 5.19551 13.6433 5.80346L16.1745 3.33196C14.6199 1.88695 12.5969 1 10.1752 1C6.66731 1 3.63774 3.01305 2.16284 5.94292L5.06283 8.19519C5.79039 6.03265 7.80344 4.46802 10.1752 4.46802Z" fill="#EB4335"/>
</g>
<defs>
<clipPath id="clip0_1870_8272">
<rect width="17.5878" height="18" fill="white" transform="translate(1.20605 1)"/>
</clipPath>
</defs>
</svg>
