<svg width="80" height="80" viewBox="0 0 80 80" fill="none" xmlns="http://www.w3.org/2000/svg">
<circle cx="40" cy="40" r="40" fill="#001447"/>
<path d="M50 25C50 23.3431 48.6569 22 47 22H24C22.8954 22 22 22.8954 22 24V54C22 55.6569 23.3431 57 25 57H47C48.6569 57 50 55.6569 50 54V25Z" fill="#002994"/>
<path d="M52.0263 44.982L56.9907 39.9989L52.0076 35.0345" stroke="white" stroke-width="2" stroke-linecap="round"/>
<path d="M56.0059 40L44.0059 40.0225" stroke="white" stroke-width="2" stroke-linecap="round"/>
<path d="M44 19.4277C44 17.4496 42.1191 16.013 40.2106 16.5335L22.7369 21.299C22.3018 21.4177 22 21.8128 22 22.2638V56.2688C22 56.7043 22.2818 57.0897 22.6968 57.2217L40.0904 62.756C42.0252 63.3717 44 61.9277 44 59.8973L44 19.4277Z" fill="#0044F2"/>
</svg>
