<svg width="17" height="17" viewBox="0 0 17 17" fill="none" xmlns="http://www.w3.org/2000/svg">
<path fill-rule="evenodd" clip-rule="evenodd" d="M2.84727 3.55922H14.6204C15.9459 3.6395 17 4.80494 17 6.2405V13.8036C17 15.2921 15.8705 16.5 14.4771 16.5H2.52294C1.13136 16.5 0 15.2921 0 13.8036V3.5C0 2.01061 0.477058 0.5 3 0.5H12C13.3925 0.5 14.9991 1.00967 15 2.5H3C2.94452 2.5 2.87774 2.48583 2.81198 2.47187C2.6654 2.44076 2.52388 2.41072 2.52388 2.54111V3.2145C2.52388 3.40528 2.66813 3.55922 2.84727 3.55922ZM12.7338 11.5039H13.2618C13.704 11.5018 14.061 11.1413 14.0594 10.6983V10.1666C14.0594 9.72172 13.7021 9.36189 13.2618 9.36189H12.7338C12.2945 9.36189 11.9381 9.72267 11.9381 10.1666V10.6983C11.936 11.1408 12.2921 11.5013 12.7338 11.5039Z" fill="white"/>
</svg>
