<svg width="20" height="20" viewBox="0 0 20 20" fill="none" xmlns="http://www.w3.org/2000/svg">
<g clip-path="url(#clip0_1870_8254)">
<path fill-rule="evenodd" clip-rule="evenodd" d="M5.00016 0C4.35922 0 3.74453 0.254612 3.29132 0.707825C2.83811 1.16104 2.5835 1.77573 2.5835 2.41667V12.4167C2.5835 13.0576 2.83811 13.6723 3.29132 14.1255C3.74453 14.5787 4.35922 14.8333 5.00016 14.8333H5.25C5.66421 14.8333 6 14.4975 6 14.0833V14.0833C6 13.6691 5.66421 13.3333 5.25 13.3333H5.00016C4.75705 13.3333 4.52389 13.2368 4.35198 13.0648C4.18007 12.8929 4.0835 12.6598 4.0835 12.4167V4.65273C4.37166 4.77086 4.68269 4.83333 5.00016 4.83333H15.0002C15.0223 4.83333 15.0435 4.84211 15.0591 4.85774C15.0747 4.87337 15.0835 4.89456 15.0835 4.91667C15.0835 7.69444 15.0835 10.4722 15.0835 13.25C15.0835 13.2721 15.0747 13.2933 15.0591 13.3089C15.0435 13.3246 15.0223 13.3333 15.0002 13.3333H13.75C13.3358 13.3333 13 13.6691 13 14.0833V14.0833C13 14.4975 13.3358 14.8333 13.75 14.8333H15.0002C15.4201 14.8333 15.8228 14.6665 16.1197 14.3696C16.4167 14.0727 16.5835 13.6699 16.5835 13.25C16.5835 10.4719 16.5835 7.6952 16.5835 4.91667C16.5835 4.49674 16.4167 4.09401 16.1197 3.79708C15.8228 3.50015 15.4201 3.33333 15.0002 3.33333H14.9168V1.58333C14.9168 1.16341 14.75 0.760681 14.4531 0.463748C14.1561 0.166815 13.7534 0 13.3335 0H5.00016ZM4.35198 3.06485C4.18007 2.89294 4.0835 2.65978 4.0835 2.41667C4.0835 2.17355 4.18007 1.94039 4.35198 1.76849C4.52389 1.59658 4.75705 1.5 5.00016 1.5H13.3335C13.3556 1.5 13.3768 1.50878 13.3924 1.52441C13.408 1.54004 13.4168 1.56123 13.4168 1.58333V3.33333H5.00016C4.75705 3.33333 4.52389 3.23676 4.35198 3.06485Z" fill="white"/>
<path fill-rule="evenodd" clip-rule="evenodd" d="M9.78033 19.7803C9.48744 20.0732 9.01256 20.0732 8.71967 19.7803L6.21967 17.2803C5.92678 16.9874 5.92678 16.5126 6.21967 16.2197C6.51256 15.9268 6.98744 15.9268 7.28033 16.2197L8.5 17.4393L8.5 11.75C8.5 11.3358 8.83579 11 9.25 11C9.66421 11 10 11.3358 10 11.75L10 17.4393L11.2197 16.2197C11.5126 15.9268 11.9874 15.9268 12.2803 16.2197C12.5732 16.5126 12.5732 16.9874 12.2803 17.2803L9.78033 19.7803Z" fill="white"/>
</g>
<defs>
<clipPath id="clip0_1870_8254">
<rect width="20" height="20" fill="white"/>
</clipPath>
</defs>
</svg>
