<svg width="80" height="80" viewBox="0 0 80 80" fill="none" xmlns="http://www.w3.org/2000/svg">
<circle cx="40" cy="40" r="40" fill="#001447"/>
<path d="M13.1555 35.2876C13.1048 34.5481 13.3501 33.8187 13.8372 33.2599L24.6404 20.8689L30.5777 26.0453C30.6982 26.1504 30.8091 26.25 30.9136 26.3438C31.6458 27.0013 32.0574 27.3708 33.1753 27.2942C34.4528 27.2068 35.177 26.5949 36.0184 25.6298L41.1949 19.6924L50.9559 28.2034L45.3605 29.2951L45.37 34.6102L40.1033 35.3252L40.4413 40.2634L35.1746 40.9783L35.1841 46.2934L30.2459 46.6314L30.584 51.5696L14.1072 37.2035C13.5484 36.7164 13.2061 36.0272 13.1555 35.2876Z" fill="#0044F2"/>
<path d="M39.7426 18.4262L25.978 19.3346L32.143 24.7095C33.2922 25.7114 34.3991 24.5551 34.3991 24.5551L39.7426 18.4262Z" fill="#0044F2"/>
<mask id="mask0_2242_26849" style="mask-type:alpha" maskUnits="userSpaceOnUse" x="13" y="18" width="38" height="34">
<path d="M13.1555 35.2876C13.1048 34.5481 13.3501 33.8187 13.8372 33.2599L24.6404 20.8689L30.5777 26.0453C30.6982 26.1504 30.8091 26.25 30.9136 26.3438C31.6458 27.0013 32.0574 27.3708 33.1753 27.2942C34.4528 27.2068 35.177 26.5949 36.0184 25.6298L41.1949 19.6924L50.9559 28.2034L45.3605 29.2951L45.37 34.6102L40.1033 35.3252L40.4413 40.2634L35.1746 40.9783L35.1841 46.2934L30.2459 46.6314L30.584 51.5696L14.1072 37.2035C13.5484 36.7164 13.2061 36.0272 13.1555 35.2876Z" fill="#0044F2"/>
<path d="M39.7426 18.4262L25.978 19.3346L32.143 24.7095C33.2922 25.7114 34.3991 24.5551 34.3991 24.5551L39.7426 18.4262Z" fill="#0044F2"/>
</mask>
<g mask="url(#mask0_2242_26849)">
<path d="M34.7011 39.2391L34.4113 35.0063L38.644 34.7165" stroke="white" stroke-width="2" stroke-linecap="round"/>
<path d="M34.4114 35.0059L43.4564 42.8918" stroke="white" stroke-width="2" stroke-linecap="round"/>
</g>
<path d="M64.5639 53.144C65.9988 52.3155 66.4904 50.4807 65.6619 49.0458L58.7393 37.0565L53.0923 36.2754L51.3781 41.3065L46.164 40.2754L44.883 45.0565L39.6689 44.0254L37.9548 49.0565L33.1737 47.7754L31.8926 52.5565L38.8154 64.5462C39.6439 65.981 41.4786 66.4726 42.9135 65.6441L64.5639 53.144Z" fill="#0044F2"/>
<mask id="mask1_2242_26849" style="mask-type:alpha" maskUnits="userSpaceOnUse" x="31" y="36" width="36" height="31">
<path d="M64.5639 53.144C65.9988 52.3155 66.4904 50.4807 65.6619 49.0458L58.7393 37.0565L53.0923 36.2754L51.3781 41.3065L46.164 40.2754L44.883 45.0565L39.6689 44.0254L37.9548 49.0565L33.1737 47.7754L31.8926 52.5565L38.8154 64.5462C39.6439 65.981 41.4786 66.4726 42.9135 65.6441L64.5639 53.144Z" fill="#0044F2"/>
</mask>
<g mask="url(#mask1_2242_26849)">
<path d="M39.7849 42.227L40.883 38.1289L44.9811 39.227" stroke="white" stroke-width="2" stroke-linecap="round"/>
<path d="M40.8829 38.1289L46.8829 48.5212" stroke="white" stroke-width="2" stroke-linecap="round"/>
</g>
</svg>
