<svg width="20" height="20" viewBox="0 0 20 20" fill="none" xmlns="http://www.w3.org/2000/svg">
<g clip-path="url(#clip0_1870_8255)">
<path fill-rule="evenodd" clip-rule="evenodd" d="M16.3637 2.80365C16.6566 3.09655 16.6566 3.57142 16.3637 3.86431L16.0607 4.16732L17.197 5.30365C17.4899 5.59655 17.4899 6.07142 17.197 6.36431C16.9041 6.65721 16.4293 6.65721 16.1364 6.36431L15 5.22798L13.5607 6.66732L14.697 7.80365C14.9899 8.09655 14.9899 8.57142 14.697 8.86431C14.4041 9.15721 13.9293 9.15721 13.6364 8.86431L12.5 7.72798L10.0355 10.1925C10.4863 10.8491 10.75 11.6441 10.75 12.5007C10.75 14.7558 8.92187 16.584 6.66671 16.584C4.41154 16.584 2.58337 14.7558 2.58337 12.5007C2.58337 10.2455 4.41154 8.41732 6.66671 8.41732C7.5233 8.41732 8.31829 8.68108 8.97488 9.13181L14.4694 3.63734C14.4695 3.63723 14.4692 3.63746 14.4694 3.63734C14.4695 3.63722 14.4699 3.63675 14.4701 3.63663L15.303 2.80365C15.5959 2.51076 16.0708 2.51076 16.3637 2.80365ZM6.66671 9.91732C5.23997 9.91732 4.08337 11.0739 4.08337 12.5007C4.08337 13.9274 5.23997 15.084 6.66671 15.084C8.09344 15.084 9.25004 13.9274 9.25004 12.5007C9.25004 11.0739 8.09344 9.91732 6.66671 9.91732Z" fill="white"/>
</g>
<defs>
<clipPath id="clip0_1870_8255">
<rect width="20" height="20" fill="white"/>
</clipPath>
</defs>
</svg>
