<svg width="20" height="20" viewBox="0 0 20 20" fill="none" xmlns="http://www.w3.org/2000/svg">
<g clip-path="url(#clip0_1870_8261)">
<path d="M3.33325 5.83398V5.00065C3.33325 4.55862 3.50885 4.1347 3.82141 3.82214C4.13397 3.50958 4.55789 3.33398 4.99992 3.33398H6.66659" stroke="white" stroke-width="1.5" stroke-linecap="round" stroke-linejoin="round"/>
<path d="M3.33325 14.166V14.9993C3.33325 15.4414 3.50885 15.8653 3.82141 16.1779C4.13397 16.4904 4.55789 16.666 4.99992 16.666H6.66659" stroke="white" stroke-width="1.5" stroke-linecap="round" stroke-linejoin="round"/>
<path d="M13.3333 3.33398H14.9999C15.4419 3.33398 15.8659 3.50958 16.1784 3.82214C16.491 4.1347 16.6666 4.55862 16.6666 5.00065V5.83398" stroke="white" stroke-width="1.5" stroke-linecap="round" stroke-linejoin="round"/>
<path d="M13.3333 16.666H14.9999C15.4419 16.666 15.8659 16.4904 16.1784 16.1779C16.491 15.8653 16.6666 15.4414 16.6666 14.9993V14.166" stroke="white" stroke-width="1.5" stroke-linecap="round" stroke-linejoin="round"/>
<path d="M4.16663 10H15.8333" stroke="white" stroke-width="1.5" stroke-linecap="round" stroke-linejoin="round"/>
</g>
<defs>
<clipPath id="clip0_1870_8261">
<rect width="20" height="20" fill="white"/>
</clipPath>
</defs>
</svg>
