<svg width="80" height="80" viewBox="0 0 80 80" fill="none" xmlns="http://www.w3.org/2000/svg">
<circle cx="40" cy="40" r="40" fill="#001447"/>
<rect x="43.6788" y="16" width="29.0018" height="29.0018" rx="14.5009" transform="rotate(16.3734 43.6788 16)" fill="#0044F2"/>
<path fill-rule="evenodd" clip-rule="evenodd" d="M60.0168 29.6351C60.4113 30.3579 60.1452 31.2636 59.4224 31.6581L58.6747 32.0662L60.2052 34.8703C60.5997 35.593 60.3336 36.4988 59.6109 36.8932C58.8881 37.2877 57.9824 37.0216 57.5879 36.2989L56.0574 33.4948L52.5056 35.4334L54.0361 38.2375C54.4306 38.9603 54.1645 39.866 53.4418 40.2605C52.719 40.655 51.8133 40.3889 51.4188 39.6661L49.8883 36.862L46.8475 38.5217L45.4902 36.0484L55.9366 30.1637L55.9383 30.1627L57.9938 29.0408C58.7166 28.6463 59.6223 28.9124 60.0168 29.6351Z" fill="white"/>
<rect x="25.7004" y="19.6328" width="19.8434" height="19.8434" rx="9.92169" fill="#0044F2"/>
<path fill-rule="evenodd" clip-rule="evenodd" d="M37.4824 28.9604L35.2234 26.7015C34.6412 26.1193 33.6972 26.1193 33.115 26.7015C32.5327 27.2838 32.5327 28.2278 33.115 28.81L35.3739 31.0689C28.9693 37.4735 42.3287 24.1141 37.4824 28.9604Z" fill="white"/>
<rect x="20.8264" y="25.6797" width="29.0018" height="29.0018" rx="14.5009" transform="rotate(24.0656 20.8264 25.6797)" fill="#0044F2"/>
<path fill-rule="evenodd" clip-rule="evenodd" d="M38.7194 42.3435L35.4838 43.5812C35.7697 45.1384 35.604 46.7952 34.9097 48.35C33.0816 52.4433 28.2813 54.2797 24.188 52.4516C20.0946 50.6235 18.2583 45.8232 20.0864 41.7299C21.9144 37.6366 26.7147 35.8002 30.8081 37.6283C32.3629 38.3227 33.592 39.4459 34.4184 40.7962L37.7053 39.7108L38.7194 42.3435ZM29.5921 40.3509C27.0025 39.1944 23.9656 40.3562 22.809 42.9458C21.6525 45.5355 22.8142 48.5724 25.4039 49.729C27.9936 50.8855 31.0305 49.7237 32.187 47.1341C33.3436 44.5444 32.1818 41.5075 29.5921 40.3509Z" fill="white"/>
</svg>
