<svg width="52" height="56" viewBox="0 0 52 56" fill="none" xmlns="http://www.w3.org/2000/svg">
<path opacity="0.4" d="M43.8794 24.234C46.5461 25.7736 46.5461 29.6226 43.8794 31.1622L7.90495 51.932C5.23828 53.4716 1.90495 51.5471 1.90495 48.4679L1.90495 6.9282C1.90495 3.849 5.23828 1.9245 7.90495 3.4641L43.8794 24.234Z" fill="white"/>
<path opacity="0.4" d="M8.12109 31.1625C5.45443 29.6229 5.45443 25.7739 8.12109 24.2343L44.0955 3.46447C46.7622 1.92487 50.0955 3.84937 50.0955 6.92857L50.0955 48.4683C50.0955 51.5475 46.7622 53.472 44.0955 51.9324L8.12109 31.1625Z" fill="white"/>
<path fill-rule="evenodd" clip-rule="evenodd" d="M43.879 31.1647C46.5457 29.6251 46.5457 25.7761 43.879 24.2365L26.0001 13.9141L8.12085 24.2366C5.45418 25.7762 5.45418 29.6252 8.12085 31.1648L25.9998 41.4873L43.879 31.1647Z" fill="white"/>
</svg>
