<svg width="80" height="80" viewBox="0 0 80 80" fill="none" xmlns="http://www.w3.org/2000/svg">
<circle cx="40" cy="40" r="40" fill="#001447"/>
<path d="M26.0515 56.2696H56.2757C62.3536 56.2728 67.4081 51.5934 67.8725 45.5332C68.337 39.4731 64.0547 34.0781 58.0473 33.155C57.0432 29.1724 54.7554 25.6312 51.5375 23.0788C48.2603 20.4686 44.1907 19.0546 40.0011 19.0704C33.2823 19.0787 27.0878 22.7019 23.787 28.554C16.6158 29.7293 11.5482 36.2132 12.1399 43.4559C12.7317 50.6987 18.7846 56.2739 26.0515 56.2696Z" fill="#0044F2"/>
<path fill-rule="evenodd" clip-rule="evenodd" d="M45.8535 30.9833C46.2349 31.3648 46.2349 31.9832 45.8535 32.3647L45.4588 32.7593L46.9387 34.2392C47.3202 34.6206 47.3202 35.239 46.9387 35.6205C46.5573 36.0019 45.9388 36.0019 45.5574 35.6205L44.0775 34.1406L42.203 36.0151L43.6829 37.495C44.0644 37.8764 44.0644 38.4949 43.6829 38.8763C43.3015 39.2577 42.683 39.2577 42.3016 38.8763L40.8217 37.3964L37.6121 40.606C38.1991 41.4611 38.5426 42.4964 38.5426 43.612C38.5426 46.549 36.1618 48.9298 33.2248 48.9298C30.2879 48.9298 27.907 46.549 27.907 43.612C27.907 40.675 30.2879 38.2942 33.2248 38.2942C34.3404 38.2942 35.3757 38.6377 36.2308 39.2247L43.3864 32.0691C43.3862 32.0692 43.3866 32.0689 43.3864 32.0691C43.3866 32.0689 43.3872 32.0683 43.3873 32.0682L44.4721 30.9833C44.8536 30.6019 45.472 30.6019 45.8535 30.9833ZM33.2248 40.2477C31.3667 40.2477 29.8605 41.7539 29.8605 43.612C29.8605 45.4701 31.3667 46.9763 33.2248 46.9763C35.0829 46.9763 36.5892 45.4701 36.5892 43.612C36.5892 41.7539 35.0829 40.2477 33.2248 40.2477Z" fill="white"/>
</svg>
