<svg width="20" height="20" viewBox="0 0 20 20" fill="none" xmlns="http://www.w3.org/2000/svg">
<g clip-path="url(#clip0_1870_8262)">
<path fill-rule="evenodd" clip-rule="evenodd" d="M2.7912 3.12384C3.24441 2.67063 3.8591 2.41602 4.50004 2.41602H11.1667C11.8076 2.41602 12.4223 2.67063 12.8755 3.12384C13.3288 3.57705 13.5834 4.19174 13.5834 4.83268V5.74935H14.5C15.8347 5.74935 16.9167 6.83133 16.9167 8.16602V14.8327C16.9167 16.1674 15.8347 17.2493 14.5 17.2493H7.83337C6.49869 17.2493 5.41671 16.1674 5.41671 14.8327V13.916H4.50004C3.8591 13.916 3.24441 13.6614 2.7912 13.2082C2.33799 12.755 2.08337 12.1403 2.08337 11.4993V4.83268C2.08337 4.19174 2.33799 3.57705 2.7912 3.12384ZM6.91671 14.8327C6.91671 15.3389 7.32711 15.7493 7.83337 15.7493H14.5C15.0063 15.7493 15.4167 15.3389 15.4167 14.8327V8.16602C15.4167 7.65976 15.0063 7.24935 14.5 7.24935H7.83337C7.32711 7.24935 6.91671 7.65975 6.91671 8.16602V14.8327ZM12.0834 5.74935H7.83337C6.49869 5.74935 5.41671 6.83133 5.41671 8.16602V12.416H4.50004C4.25693 12.416 4.02377 12.3194 3.85186 12.1475C3.67995 11.9756 3.58337 11.7425 3.58337 11.4993V4.83268C3.58337 4.58957 3.67995 4.35641 3.85186 4.1845C4.02377 4.01259 4.25693 3.91602 4.50004 3.91602H11.1667C11.4098 3.91602 11.643 4.01259 11.8149 4.1845C11.9868 4.35641 12.0834 4.58957 12.0834 4.83268V5.74935Z" fill="white"/>
</g>
<defs>
<clipPath id="clip0_1870_8262">
<rect width="20" height="20" fill="white"/>
</clipPath>
</defs>
</svg>
