<svg width="20" height="20" viewBox="0 0 20 20" fill="none" xmlns="http://www.w3.org/2000/svg">
<g clip-path="url(#clip0_1870_8270)">
<g clip-path="url(#clip1_1870_8270)">
<path d="M16.5635 5.22596C16.8499 5.38884 17.0877 5.6251 17.2525 5.91042C17.4173 6.19574 17.503 6.51982 17.501 6.84929V12.9193C17.501 13.5935 17.1318 14.2151 16.536 14.5426L10.911 18.101C10.6321 18.2541 10.3191 18.3343 10.001 18.3343C9.68284 18.3343 9.36985 18.2541 9.09098 18.101L3.46598 14.5426C3.17445 14.3833 2.93108 14.1486 2.76132 13.863C2.59156 13.5775 2.50164 13.2515 2.50098 12.9193V6.84846C2.50098 6.17429 2.87014 5.55346 3.46598 5.22596L9.09098 1.90929C9.37809 1.75099 9.70061 1.66797 10.0285 1.66797C10.3563 1.66797 10.6789 1.75099 10.966 1.90929L16.591 5.22596H16.5635Z" stroke="white" stroke-width="1.5" stroke-linecap="round" stroke-linejoin="round"/>
<path d="M7.5 10C7.5 10.663 7.76339 11.2989 8.23223 11.7678C8.70107 12.2366 9.33696 12.5 10 12.5C10.663 12.5 11.2989 12.2366 11.7678 11.7678C12.2366 11.2989 12.5 10.663 12.5 10C12.5 9.33696 12.2366 8.70107 11.7678 8.23223C11.2989 7.76339 10.663 7.5 10 7.5C9.33696 7.5 8.70107 7.76339 8.23223 8.23223C7.76339 8.70107 7.5 9.33696 7.5 10Z" stroke="white" stroke-width="1.5" stroke-linecap="round" stroke-linejoin="round"/>
</g>
</g>
<defs>
<clipPath id="clip0_1870_8270">
<rect width="20" height="20" fill="white"/>
</clipPath>
<clipPath id="clip1_1870_8270">
<rect width="20" height="20" fill="white"/>
</clipPath>
</defs>
</svg>
