<svg width="20" height="20" viewBox="0 0 20 20" fill="none" xmlns="http://www.w3.org/2000/svg">
<g clip-path="url(#clip0_1870_8258)">
<path fill-rule="evenodd" clip-rule="evenodd" d="M9.5 3C9.91421 3 10.25 3.33579 10.25 3.75V10.106L12.4697 7.88634C12.7626 7.59344 13.2374 7.59344 13.5303 7.88634C13.8232 8.17923 13.8232 8.6541 13.5303 8.947L10.0303 12.447C9.73744 12.7399 9.26256 12.7399 8.96967 12.447L5.46967 8.947C5.17678 8.6541 5.17678 8.17923 5.46967 7.88634C5.76256 7.59344 6.23744 7.59344 6.53033 7.88634L8.75 10.106V3.75C8.75 3.33579 9.08579 3 9.5 3ZM1 7.8335C1.41421 7.8335 1.75 8.16928 1.75 8.5835C1.75 12.8637 5.21979 16.3335 9.5 16.3335C13.7802 16.3335 17.25 12.8637 17.25 8.5835C17.25 8.16928 17.5858 7.8335 18 7.8335C18.4142 7.8335 18.75 8.16928 18.75 8.5835C18.75 13.6921 14.6086 17.8335 9.5 17.8335C4.39137 17.8335 0.25 13.6921 0.25 8.5835C0.25 8.16928 0.585786 7.8335 1 7.8335Z" fill="white"/>
</g>
<defs>
<clipPath id="clip0_1870_8258">
<rect width="20" height="20" fill="white"/>
</clipPath>
</defs>
</svg>
