<svg width="20" height="20" viewBox="0 0 20 20" fill="none" xmlns="http://www.w3.org/2000/svg">
<g clip-path="url(#clip0_1870_8257)">
<path fill-rule="evenodd" clip-rule="evenodd" d="M8.96967 3.21967C9.26256 2.92678 9.73744 2.92678 10.0303 3.21967L13.5303 6.71967C13.8232 7.01256 13.8232 7.48744 13.5303 7.78033C13.2374 8.07322 12.7626 8.07322 12.4697 7.78033L10.25 5.56066V11.9167C10.25 12.3309 9.91421 12.6667 9.5 12.6667C9.08579 12.6667 8.75 12.3309 8.75 11.9167V5.56066L6.53033 7.78033C6.23744 8.07322 5.76256 8.07322 5.46967 7.78033C5.17678 7.48744 5.17678 7.01256 5.46967 6.71967L8.96967 3.21967ZM1 7.50016C1.41421 7.50016 1.75 7.83595 1.75 8.25016C1.75 12.5304 5.21979 16.0002 9.5 16.0002C13.7802 16.0002 17.25 12.5304 17.25 8.25016C17.25 7.83595 17.5858 7.50016 18 7.50016C18.4142 7.50016 18.75 7.83595 18.75 8.25016C18.75 13.3588 14.6086 17.5002 9.5 17.5002C4.39137 17.5002 0.25 13.3588 0.25 8.25016C0.25 7.83595 0.585786 7.50016 1 7.50016Z" fill="white"/>
</g>
<defs>
<clipPath id="clip0_1870_8257">
<rect width="20" height="20" fill="white"/>
</clipPath>
</defs>
</svg>
