<svg width="20" height="20" viewBox="0 0 20 20" fill="none" xmlns="http://www.w3.org/2000/svg">
<g clip-path="url(#clip0_1870_8253)">
<path fill-rule="evenodd" clip-rule="evenodd" d="M10.7084 4.78022C10.1939 4.68667 9.66344 4.68524 9.14827 4.77603C8.63311 4.86682 8.14624 5.0475 7.71513 5.30508C6.84405 5.82553 6.26205 6.62078 6.06509 7.49825C5.98823 7.84065 5.68422 8.08398 5.3333 8.08398C4.48195 8.08398 3.67181 8.40779 3.07953 8.97432C2.48839 9.53976 2.16284 10.2994 2.16284 11.084C2.16284 11.8686 2.48839 12.6282 3.07953 13.1937C3.67181 13.7602 4.48195 14.084 5.3333 14.084C5.74751 14.084 6.0833 14.4198 6.0833 14.834C6.0833 15.2482 5.74751 15.584 5.3333 15.584C4.10511 15.584 2.92088 15.1176 2.0427 14.2776C1.16339 13.4365 0.662842 12.2885 0.662842 11.084C0.662842 9.87948 1.16339 8.73143 2.0427 7.89035C2.78372 7.18155 3.74266 6.73878 4.76204 6.61776C5.1479 5.54419 5.92192 4.62914 6.94578 4.01741C7.53783 3.66367 8.19789 3.4204 8.88794 3.29879C9.57799 3.17719 10.2874 3.17909 10.9767 3.30442C11.666 3.42974 12.3246 3.67659 12.9144 4.03359C13.5043 4.39065 14.0156 4.85198 14.4158 5.39455C14.8162 5.93736 15.0971 6.55034 15.2383 7.1992C15.3138 7.54617 15.3483 7.89868 15.3418 8.25066C16.3112 8.25291 17.2404 8.63896 17.926 9.32459C18.6137 10.0122 19 10.9449 19 11.9173C19 12.8898 18.6137 13.8224 17.926 14.51C17.2384 15.1977 16.3058 15.584 15.3333 15.584H14.5C14.0858 15.584 13.75 15.2482 13.75 14.834C13.75 14.4198 14.0858 14.084 14.5 14.084H15.3333C15.9079 14.084 16.459 13.8557 16.8654 13.4494C17.2717 13.0431 17.5 12.492 17.5 11.9173C17.5 11.3427 17.2717 10.7916 16.8654 10.3853C16.459 9.97892 15.9079 9.75065 15.3333 9.75065H14.5C14.2722 9.75065 14.0568 9.64714 13.9144 9.46932C13.7721 9.2915 13.7183 9.05863 13.7682 8.83639C13.8659 8.4012 13.8673 7.95372 13.7726 7.51809C13.6777 7.08226 13.4875 6.663 13.2087 6.28496C12.9297 5.90669 12.5669 5.5766 12.1377 5.31684C11.7084 5.05703 11.2229 4.87376 10.7084 4.78022ZM8.96963 9.30365C9.26253 9.01076 9.7374 9.01076 10.0303 9.30365L12.5303 11.8037C12.8232 12.0965 12.8232 12.5714 12.5303 12.8643C12.2374 13.1572 11.7625 13.1572 11.4696 12.8643L10.25 11.6446V17.334C10.25 17.7482 9.91418 18.084 9.49996 18.084C9.08575 18.084 8.74996 17.7482 8.74996 17.334V11.6446L7.53029 12.8643C7.2374 13.1572 6.76253 13.1572 6.46963 12.8643C6.17674 12.5714 6.17674 12.0965 6.46963 11.8037L8.96963 9.30365Z" fill="white"/>
</g>
<defs>
<clipPath id="clip0_1870_8253">
<rect width="20" height="20" fill="white"/>
</clipPath>
</defs>
</svg>
