<svg width="20" height="20" viewBox="0 0 20 20" fill="none" xmlns="http://www.w3.org/2000/svg">
<g clip-path="url(#clip0_1870_8260)">
<path d="M16.6666 9.16658C16.4628 7.7001 15.7825 6.3413 14.7305 5.2995C13.6784 4.25769 12.313 3.59068 10.8446 3.40121C9.37624 3.21174 7.88627 3.51032 6.60425 4.25096C5.32224 4.99159 4.31929 6.1332 3.74992 7.49992M3.33325 4.16658V7.49992H6.66659" stroke="white" stroke-width="1.25" stroke-linecap="round" stroke-linejoin="round"/>
<path d="M3.33325 10.834C3.53705 12.3005 4.21736 13.6593 5.26939 14.7011C6.32141 15.7429 7.68679 16.4099 9.15519 16.5994C10.6236 16.7888 12.1136 16.4902 13.3956 15.7496C14.6776 15.009 15.6805 13.8674 16.2499 12.5007M16.6666 15.834V12.5007H13.3333" stroke="white" stroke-width="1.25" stroke-linecap="round" stroke-linejoin="round"/>
</g>
<defs>
<clipPath id="clip0_1870_8260">
<rect width="20" height="20" fill="white"/>
</clipPath>
</defs>
</svg>
