<svg width="18" height="18" viewBox="0 0 18 18" fill="none" xmlns="http://www.w3.org/2000/svg">
<path fill-rule="evenodd" clip-rule="evenodd" d="M1.04268 4.18601C0.731052 4.38209 0.731052 4.83633 1.04268 5.03241L6.60381 8.53144C6.93677 8.74095 7.37008 8.50164 7.37008 8.10825L7.37008 5.61958C7.3991 5.62182 7.42843 5.62295 7.45803 5.62295L15.3688 5.62295C15.993 5.62295 16.499 5.11695 16.499 4.49279C16.499 3.86863 15.993 3.36263 15.3688 3.36263L7.45803 3.36263C7.42843 3.36263 7.3991 3.36377 7.37008 3.366L7.37008 1.11018C7.37008 0.716784 6.93677 0.477478 6.60381 0.68698L1.04268 4.18601ZM2.63011 12.3762C2.00595 12.3762 1.49996 12.8822 1.49996 13.5063C1.49996 14.1305 2.00594 14.6365 2.6301 14.6365H10.5409C10.5709 14.6365 10.6005 14.6353 10.6299 14.633V16.8891C10.6299 17.2825 11.0632 17.5218 11.3962 17.3123L16.9573 13.8133C17.2689 13.6172 17.2689 13.163 16.9573 12.9669L11.3962 9.46784C11.0632 9.25834 10.6299 9.49764 10.6299 9.89104V12.3796C10.6005 12.3773 10.5709 12.3762 10.5409 12.3762H2.63011Z" fill="white"/>
</svg>
