<svg width="20" height="20" viewBox="0 0 20 20" fill="none" xmlns="http://www.w3.org/2000/svg">
<path d="M15.6142 19.1974C14.5255 20.2528 13.3368 20.0862 12.1925 19.5862C10.9815 19.0752 9.87058 19.053 8.59297 19.5862C6.99319 20.275 6.14886 20.0751 5.19344 19.1974C-0.228051 13.6093 0.571841 5.09931 6.72656 4.78824C8.22636 4.86601 9.27066 5.61035 10.1483 5.67701C11.4593 5.41038 12.7146 4.64381 14.1144 4.7438C15.792 4.87712 17.0585 5.54369 17.8917 6.74353C14.4255 8.82102 15.2476 13.3871 18.425 14.6647C17.7917 16.3311 16.9696 17.9864 15.6031 19.2085L15.6142 19.1974ZM10.0372 4.72158C9.87058 2.24414 11.8814 0.199973 14.1922 0C14.5144 2.86628 11.5926 4.99932 10.0372 4.72158Z" fill="white"/>
</svg>
