<svg width="20" height="20" viewBox="0 0 20 20" fill="none" xmlns="http://www.w3.org/2000/svg">
<g clip-path="url(#clip0_1870_8263)">
<path fill-rule="evenodd" clip-rule="evenodd" d="M8.76429 2.05753C9.13616 1.83829 9.55997 1.72266 9.99166 1.72266C10.4234 1.72266 10.8472 1.83829 11.219 2.05753C11.5886 2.27539 11.8934 2.58766 12.1023 2.96221L18.0156 13.1647C18.0332 13.1952 18.0487 13.2269 18.0619 13.2595C18.2098 13.625 18.266 14.0212 18.2256 14.4134C18.1852 14.8056 18.0494 15.182 17.8302 15.5097C17.6109 15.8374 17.3148 16.1065 16.9676 16.2935C16.6205 16.4805 16.2329 16.5797 15.8386 16.5824L15.8333 16.5825L4.16666 16.5825C4.15139 16.5825 4.13623 16.582 4.12119 16.5811C4.09327 16.5828 4.06497 16.5829 4.03638 16.5815C3.6514 16.5616 3.27675 16.45 2.94372 16.2558C2.61068 16.0617 2.32892 15.7907 2.12196 15.4654C1.915 15.1402 1.78884 14.7702 1.75402 14.3863C1.7192 14.0024 1.77673 13.6157 1.9218 13.2585C1.93492 13.2262 1.95029 13.1949 1.96777 13.1647L7.88104 2.96223C8.08993 2.58767 8.39477 2.2754 8.76429 2.05753ZM4.12064 15.0838C4.13586 15.0829 4.15121 15.0825 4.16666 15.0825H15.8303C15.9791 15.081 16.1253 15.0434 16.2563 14.9729C16.388 14.9019 16.5003 14.7999 16.5835 14.6756C16.6667 14.5513 16.7182 14.4085 16.7335 14.2597C16.7473 14.1259 16.7314 13.9909 16.6873 13.8643L10.8011 3.70854L10.7937 3.69554C10.7145 3.55227 10.5983 3.43284 10.4572 3.34968C10.3162 3.26652 10.1554 3.22266 9.99166 3.22266C9.82792 3.22266 9.66716 3.26652 9.52611 3.34968C9.38505 3.43284 9.26885 3.55227 9.18958 3.69554L9.18222 3.70854L3.29574 13.8648C3.25242 13.9884 3.23603 14.12 3.24789 14.2508C3.2611 14.3964 3.30895 14.5368 3.38745 14.6601C3.46595 14.7835 3.57283 14.8863 3.69915 14.9599C3.82547 15.0336 3.96758 15.0759 4.11361 15.0834C4.11596 15.0836 4.1183 15.0837 4.12064 15.0838ZM10 5.74912C10.4142 5.74912 10.75 6.0849 10.75 6.49912V9.49912C10.75 9.91333 10.4142 10.2491 10 10.2491C9.58578 10.2491 9.25 9.91333 9.25 9.49912V6.49912C9.25 6.0849 9.58578 5.74912 10 5.74912ZM10 11.7491C10.4142 11.7491 10.75 12.0849 10.75 12.4991V12.5075C10.75 12.9217 10.4142 13.2575 10 13.2575C9.58578 13.2575 9.25 12.9217 9.25 12.5075V12.4991C9.25 12.0849 9.58578 11.7491 10 11.7491Z" fill="white"/>
</g>
<defs>
<clipPath id="clip0_1870_8263">
<rect width="20" height="20" fill="white"/>
</clipPath>
</defs>
</svg>
