<svg width="36" height="36" viewBox="0 0 36 36" fill="none" xmlns="http://www.w3.org/2000/svg">
<g clip-path="url(#clip0_1870_8315)">
<path d="M33.5214 21.8692C31.3836 30.4452 22.6947 35.6585 14.131 33.5206C5.55473 31.3829 0.341483 22.6944 2.47936 14.1307C4.61711 5.55473 13.2934 0.341484 21.8696 2.47936C30.4334 4.60461 35.6592 13.2931 33.5214 21.8692Z" fill="url(#paint0_linear_1870_8315)"/>
<path d="M25.6181 16.0066C25.9306 13.8816 24.3181 12.7316 22.0931 11.9691L22.8181 9.08164L21.0681 8.64414L20.3681 11.4566C19.9056 11.3441 19.4306 11.2316 18.9556 11.1316L19.6556 8.30664L17.9056 7.86914L17.1931 10.7441C16.8056 10.6566 16.4306 10.5691 16.0681 10.4816V10.4691L13.6431 9.86914L13.1806 11.7441C13.1806 11.7441 14.4806 12.0441 14.4556 12.0566C15.1681 12.2316 15.2931 12.7066 15.2681 13.0816L14.4431 16.3691C14.4931 16.3816 14.5556 16.3941 14.6306 16.4316C14.5681 16.4191 14.5056 16.4066 14.4431 16.3816L13.2931 20.9816C13.2056 21.1941 12.9806 21.5191 12.4931 21.3941C12.5056 21.4191 11.2181 21.0816 11.2181 21.0816L10.3431 23.0941L12.6306 23.6691C13.0556 23.7816 13.4681 23.8816 13.8806 23.9941L13.1556 26.9066L14.9056 27.3441L15.6306 24.4566C16.1056 24.5816 16.5806 24.7066 17.0306 24.8191L16.3181 27.6941L18.0681 28.1316L18.7931 25.2191C21.7931 25.7816 24.0431 25.5566 24.9806 22.8441C25.7431 20.6691 24.9431 19.4066 23.3681 18.5816C24.5306 18.3191 25.3931 17.5566 25.6181 16.0066ZM21.6056 21.6316C21.0681 23.8066 17.3931 22.6316 16.2056 22.3316L17.1681 18.4691C18.3556 18.7691 22.1806 19.3566 21.6056 21.6316ZM22.1556 15.9691C21.6556 17.9566 18.6056 16.9441 17.6181 16.6941L18.4931 13.1941C19.4806 13.4441 22.6681 13.9066 22.1556 15.9691Z" fill="white"/>
</g>
<defs>
<linearGradient id="paint0_linear_1870_8315" x1="1601.13" y1="1.232" x2="1601.13" y2="3201.68" gradientUnits="userSpaceOnUse">
<stop stop-color="#F9AA4B"/>
<stop offset="1" stop-color="#F7931A"/>
</linearGradient>
<clipPath id="clip0_1870_8315">
<rect width="32" height="32" fill="white" transform="translate(2 2)"/>
</clipPath>
</defs>
</svg>
