<svg width="80" height="80" viewBox="0 0 80 80" fill="none" xmlns="http://www.w3.org/2000/svg">
<circle cx="40" cy="40" r="40" fill="#001447"/>
<rect x="34.7843" y="23.7852" width="20.4626" height="19.6323" rx="9.81613" transform="rotate(45 34.7843 23.7852)" fill="white"/>
<path fill-rule="evenodd" clip-rule="evenodd" d="M35.1086 24.5019C28.8796 24.5019 23.83 29.5515 23.83 35.7805C23.83 42.0094 28.8796 47.059 35.1086 47.059C41.3376 47.059 46.3871 42.0094 46.3871 35.7805C46.3871 29.5515 41.3376 24.5019 35.1086 24.5019ZM20.502 35.7805C20.502 27.7134 27.0416 21.1738 35.1086 21.1738C43.1756 21.1738 49.7152 27.7134 49.7152 35.7805C49.7152 39.2144 48.5302 42.3716 46.5469 44.8654L56.6236 54.9422C57.2734 55.592 57.2734 56.6456 56.6236 57.2955C55.9738 57.9453 54.9201 57.9453 54.2703 57.2955L44.1935 47.2187C41.6997 49.2021 38.5425 50.3871 35.1086 50.3871C27.0416 50.3871 20.502 43.8475 20.502 35.7805Z" fill="#0044F2"/>
<path d="M46.5955 51.4453L50.7976 47.2431L60.8989 57.3444C62.0593 58.5048 62.0593 60.3862 60.8989 61.5466C59.7385 62.707 57.8572 62.707 56.6968 61.5466L46.5955 51.4453Z" fill="#0044F2"/>
</svg>
