<svg width="80" height="80" viewBox="0 0 80 80" fill="none" xmlns="http://www.w3.org/2000/svg">
<circle cx="40" cy="40" r="40" fill="#001447"/>
<path d="M25.8187 20.1624C26.3428 19.6382 27.0538 19.3438 27.7951 19.3438H44.2342V27.2208C44.2342 27.3806 44.2321 27.5297 44.23 27.6701C44.2157 28.6541 44.2076 29.2071 45 29.9995C45.9054 30.9049 46.8425 31.0486 48.1229 31.0486H55.9999V57.7125C55.9999 58.4538 55.7055 59.1648 55.1813 59.6889C54.6571 60.2131 53.9462 60.5076 53.2049 60.5076H27.7951C27.0538 60.5076 26.3428 60.2131 25.8187 59.6889C25.2945 59.1648 25 58.4538 25 57.7125V22.1388C25 21.3975 25.2945 20.6866 25.8187 20.1624Z" fill="#0044F2"/>
<path d="M55.9999 29.1218L46.2698 19.3438V27.5228C46.2698 29.0474 47.8688 29.1218 47.8688 29.1218H55.9999Z" fill="#0044F2"/>
<path d="M40 47L48 47" stroke="white" stroke-width="2" stroke-linecap="round"/>
<path d="M45 44L48 47L45 50" stroke="white" stroke-width="2" stroke-linecap="round"/>
<path d="M36 44L33 41L36 38" stroke="white" stroke-width="2" stroke-linecap="round"/>
<path d="M33 41L41 41" stroke="white" stroke-width="2" stroke-linecap="round"/>
</svg>
